<svg width="256" height="256" viewBox="0 0 256 256" fill="none" xmlns="http://www.w3.org/2000/svg">
<g clip-path="url(#clip0_5_57)">
<path d="M196 0H60C26.8629 0 0 26.8629 0 60V196C0 229.137 26.8629 256 60 256H196C229.137 256 256 229.137 256 196V60C256 26.8629 229.137 0 196 0Z" fill="#242938"/>
<g clip-path="url(#clip1_5_57)">
<path d="M196.708 128C196.708 135.181 194.129 141.681 189.953 146.382C185.778 151.088 180.01 154 173.639 154C167.267 154 161.5 156.907 157.329 161.613C153.153 166.319 150.569 172.819 150.569 180C150.569 187.181 147.99 193.681 143.815 198.382C139.639 203.088 133.872 206 127.5 206C121.128 206 115.361 203.088 111.19 198.382C107.014 193.681 104.431 187.181 104.431 180C104.431 172.819 107.014 166.319 111.19 161.613C115.361 156.907 121.128 154 127.5 154C133.872 154 139.639 151.088 143.815 146.382C147.99 141.681 150.569 135.181 150.569 128C150.569 113.638 140.243 102 127.5 102C121.128 102 115.361 99.088 111.19 94.382C107.014 89.6812 104.431 83.1812 104.431 76C104.431 68.8188 107.014 62.3188 111.19 57.6128C115.361 52.9068 121.128 50 127.5 50C140.243 50 150.569 61.6376 150.569 76C150.569 83.1812 153.153 89.6812 157.329 94.382C161.5 99.088 167.267 102 173.639 102C186.382 102 196.708 113.638 196.708 128Z" fill="#F44250"/>
<path d="M104.431 128C104.431 113.64 94.1021 102 81.3614 102C68.6207 102 58.2921 113.64 58.2921 128C58.2921 142.359 68.6207 154 81.3614 154C94.1021 154 104.431 142.359 104.431 128Z" fill="white"/>
<path d="M58.2921 180C58.2921 165.641 47.9636 154 35.2228 154C22.4819 154 12.1535 165.641 12.1535 180C12.1535 194.36 22.4819 206 35.2228 206C47.9636 206 58.2921 194.36 58.2921 180Z" fill="white"/>
<path d="M242.846 180C242.846 165.641 232.518 154 219.777 154C207.036 154 196.708 165.641 196.708 180C196.708 194.36 207.036 206 219.777 206C232.518 206 242.846 194.36 242.846 180Z" fill="white"/>
</g>
</g>
<defs>
<clipPath id="clip0_5_57">
<rect width="256" height="256" fill="white"/>
</clipPath>
<clipPath id="clip1_5_57">
<rect width="231" height="156" fill="white" transform="translate(12 50)"/>
</clipPath>
</defs>
</svg>
